<svg id="Calque_1" xmlns="http://www.w3.org/2000/svg" xmlns:xlink="http://www.w3.org/1999/xlink" viewBox="0 0 1920 1080"><style>.st0{opacity:.7}.st1,.st2{clip-path:url(#SVGID_1_);fill:#eee}.st2{clip-path:url(#SVGID_2_)}.st3{clip-path:url(#SVGID_3_)}.st4{clip-path:url(#SVGID_4_);fill:#eee}.st5{clip-path:url(#SVGID_5_);fill:#f4f4f4}.st6{clip-path:url(#SVGID_6_);fill:#e6e6e6}.st7{clip-path:url(#SVGID_7_);fill:#ebebeb}.st8{clip-path:url(#SVGID_8_);fill:#e6e6e6}.st10,.st11,.st9{fill:#e9e9e9}.st9{clip-path:url(#SVGID_9_)}.st10{clip-path:url(#SVGID_10_)}.st11{clip-path:url(#SVGID_11_)}.st12{clip-path:url(#SVGID_12_);fill:#f7f7f7}.st13{clip-path:url(#SVGID_13_);fill:#ededed}.st14{clip-path:url(#SVGID_14_);fill:#f7f7f7}.st15{clip-path:url(#SVGID_15_);fill:#ebebeb}.st16{clip-path:url(#SVGID_16_);fill:#e3e3e3}.st17{clip-path:url(#SVGID_17_);fill:#e5e5e5}.st18{clip-path:url(#SVGID_18_);fill:#e9e9e9}.st19{clip-path:url(#SVGID_19_);fill:#f2f2f2}.st20{clip-path:url(#SVGID_20_);fill:#e6e6e6}.st21{clip-path:url(#SVGID_21_);fill:#eae9e9}.st22{clip-path:url(#SVGID_22_);fill:#e6e6e6}.st23{clip-path:url(#SVGID_23_);fill:#efefef}.st24{clip-path:url(#SVGID_24_);fill:#e2e2e2}.st25,.st26{clip-path:url(#SVGID_25_);fill:#ebebeb}.st26{clip-path:url(#SVGID_26_)}.st27{clip-path:url(#SVGID_27_);fill:#e0e0e0}.st28{clip-path:url(#SVGID_28_);fill:#e3e3e3}.st29{clip-path:url(#SVGID_29_);fill:#e6e6e6}.st30{clip-path:url(#SVGID_30_);fill:#ebebeb}.st31{clip-path:url(#SVGID_31_);fill:#e6e6e6}.st32{clip-path:url(#SVGID_32_);fill:#e1e1e1}.st33,.st34{clip-path:url(#SVGID_33_);fill:#dedede}.st34{clip-path:url(#SVGID_34_)}.st35{clip-path:url(#SVGID_35_);fill:#efefef}.st36{clip-path:url(#SVGID_36_);fill:#d7d7d7}.st37{clip-path:url(#SVGID_37_);fill:#f4f4f4}.st38{clip-path:url(#SVGID_38_);fill:#e3e3e3}.st39{clip-path:url(#SVGID_39_);fill:#e1e1e1}.st40{clip-path:url(#SVGID_40_);fill:#dcdcdc}.st41{clip-path:url(#SVGID_41_);fill:#d9d9d9}.st42{clip-path:url(#SVGID_42_);fill:#e1e1e1}.st43{clip-path:url(#SVGID_43_);fill:#d7d7d7}.st44{clip-path:url(#SVGID_44_);fill:#eaeaea}.st45{clip-path:url(#SVGID_45_);fill:#e6e6e6}.st46{clip-path:url(#SVGID_46_);fill:#e3e3e3}.st47,.st48{clip-path:url(#SVGID_47_);fill:#e1e1e1}.st48{clip-path:url(#SVGID_48_)}.st49{clip-path:url(#SVGID_49_);fill:#ddd}.st50{clip-path:url(#SVGID_50_);fill:#dcdcdc}.st51{clip-path:url(#SVGID_51_);fill:#e1e1e1}.st52{clip-path:url(#SVGID_52_);fill:#ddd}.st53{clip-path:url(#SVGID_53_);fill:#e8e8e8}</style><g class="st0"><defs><path id="SVGID_106_" d="M0 0h1920v1080H0z"/></defs><clipPath id="SVGID_1_"><use xlink:href="#SVGID_106_" overflow="visible"/></clipPath><path class="st1" d="M173 1000L-13 702l-109 325 295-27z"/><defs><path id="SVGID_105_" d="M0 0h1920v1080H0z"/></defs><clipPath id="SVGID_2_"><use xlink:href="#SVGID_105_" overflow="visible"/></clipPath><path class="st2" d="M61 1104l112-104-295 27 183 77z"/><defs><path id="SVGID_104_" d="M0 0h1920v1080H0z"/></defs><clipPath id="SVGID_3_"><use xlink:href="#SVGID_104_" overflow="visible"/></clipPath><path class="st3" d="M-9 1154l70-50-183-77 113 127z"/><defs><path id="SVGID_103_" d="M0 0h1920v1080H0z"/></defs><clipPath id="SVGID_4_"><use xlink:href="#SVGID_103_" overflow="visible"/></clipPath><path class="st4" d="M173 1000l118-83-304-215 186 298z"/><defs><path id="SVGID_102_" d="M0 0h1920v1080H0z"/></defs><clipPath id="SVGID_5_"><use xlink:href="#SVGID_102_" overflow="visible"/></clipPath><path class="st5" d="M-13 702l194-120-231-45 37 165z"/><defs><path id="SVGID_101_" d="M0 0h1920v1080H0z"/></defs><clipPath id="SVGID_6_"><use xlink:href="#SVGID_101_" overflow="visible"/></clipPath><path class="st6" d="M291 917l-65-271-239 56 304 215z"/><defs><path id="SVGID_100_" d="M0 0h1920v1080H0z"/></defs><clipPath id="SVGID_7_"><use xlink:href="#SVGID_100_" overflow="visible"/></clipPath><path class="st7" d="M226 646l-45-64-194 120 239-56z"/><defs><path id="SVGID_99_" d="M0 0h1920v1080H0z"/></defs><clipPath id="SVGID_8_"><use xlink:href="#SVGID_99_" overflow="visible"/></clipPath><path class="st8" d="M201 1291l-28-291-112 104 140 187z"/><defs><path id="SVGID_98_" d="M0 0h1920v1080H0z"/></defs><clipPath id="SVGID_9_"><use xlink:href="#SVGID_98_" overflow="visible"/></clipPath><path class="st9" d="M201 1291l200-115-228-176 28 291z"/><defs><path id="SVGID_97_" d="M0 0h1920v1080H0z"/></defs><clipPath id="SVGID_10_"><use xlink:href="#SVGID_97_" overflow="visible"/></clipPath><path class="st10" d="M291 917l137-94-202-177 65 271z"/><defs><path id="SVGID_96_" d="M0 0h1920v1080H0z"/></defs><clipPath id="SVGID_11_"><use xlink:href="#SVGID_96_" overflow="visible"/></clipPath><path class="st11" d="M401 1176L291 917l-118 83 228 176z"/><defs><path id="SVGID_95_" d="M0 0h1920v1080H0z"/></defs><clipPath id="SVGID_12_"><use xlink:href="#SVGID_95_" overflow="visible"/></clipPath><path class="st12" d="M226 646l144-146-189 82 45 64z"/><defs><path id="SVGID_94_" d="M0 0h1920v1080H0z"/></defs><clipPath id="SVGID_13_"><use xlink:href="#SVGID_94_" overflow="visible"/></clipPath><path class="st13" d="M428 823l-58-323-144 146 202 177z"/><defs><path id="SVGID_93_" d="M0 0h1920v1080H0z"/></defs><clipPath id="SVGID_14_"><use xlink:href="#SVGID_93_" overflow="visible"/></clipPath><path class="st14" d="M428 823l192-145-250-178 58 323z"/><defs><path id="SVGID_92_" d="M0 0h1920v1080H0z"/></defs><clipPath id="SVGID_15_"><use xlink:href="#SVGID_92_" overflow="visible"/></clipPath><path class="st15" d="M401 1176l204-223-314-36 110 259z"/><defs><path id="SVGID_91_" d="M0 0h1920v1080H0z"/></defs><clipPath id="SVGID_16_"><use xlink:href="#SVGID_91_" overflow="visible"/></clipPath><path class="st16" d="M605 953L428 823l-137 94 314 36z"/><defs><path id="SVGID_90_" d="M0 0h1920v1080H0z"/></defs><clipPath id="SVGID_17_"><use xlink:href="#SVGID_90_" overflow="visible"/></clipPath><path class="st17" d="M470 1226l135-273-204 223 69 50z"/><defs><path id="SVGID_89_" d="M0 0h1920v1080H0z"/></defs><clipPath id="SVGID_18_"><use xlink:href="#SVGID_89_" overflow="visible"/></clipPath><path class="st18" d="M711 1194L605 953l-135 273 241-32z"/><defs><path id="SVGID_88_" d="M0 0h1920v1080H0z"/></defs><clipPath id="SVGID_19_"><use xlink:href="#SVGID_88_" overflow="visible"/></clipPath><path class="st19" d="M605 953l15-275-192 145 177 130z"/><defs><path id="SVGID_87_" d="M0 0h1920v1080H0z"/></defs><clipPath id="SVGID_20_"><use xlink:href="#SVGID_87_" overflow="visible"/></clipPath><path class="st20" d="M711 1194l-16-195-90-46 106 241z"/><defs><path id="SVGID_86_" d="M0 0h1920v1080H0z"/></defs><clipPath id="SVGID_21_"><use xlink:href="#SVGID_86_" overflow="visible"/></clipPath><path class="st21" d="M796 803L620 678l-15 275 191-150z"/><defs><path id="SVGID_85_" d="M0 0h1920v1080H0z"/></defs><clipPath id="SVGID_22_"><use xlink:href="#SVGID_85_" overflow="visible"/></clipPath><path class="st22" d="M695 999l101-196-191 150 90 46z"/><defs><path id="SVGID_84_" d="M0 0h1920v1080H0z"/></defs><clipPath id="SVGID_23_"><use xlink:href="#SVGID_84_" overflow="visible"/></clipPath><path class="st23" d="M796 803l96-144-272 19 176 125z"/><defs><path id="SVGID_83_" d="M0 0h1920v1080H0z"/></defs><clipPath id="SVGID_24_"><use xlink:href="#SVGID_83_" overflow="visible"/></clipPath><path class="st24" d="M957 1192l-18-224-228 226 246-2z"/><defs><path id="SVGID_82_" d="M0 0h1920v1080H0z"/></defs><clipPath id="SVGID_25_"><use xlink:href="#SVGID_82_" overflow="visible"/></clipPath><path class="st25" d="M711 1194l228-226-244 31 16 195z"/><defs><path id="SVGID_81_" d="M0 0h1920v1080H0z"/></defs><clipPath id="SVGID_26_"><use xlink:href="#SVGID_81_" overflow="visible"/></clipPath><path class="st26" d="M939 968L796 803 695 999l244-31z"/><defs><path id="SVGID_80_" d="M0 0h1920v1080H0z"/></defs><clipPath id="SVGID_27_"><use xlink:href="#SVGID_80_" overflow="visible"/></clipPath><path class="st27" d="M939 968l-47-309-96 144 143 165z"/><defs><path id="SVGID_79_" d="M0 0h1920v1080H0z"/></defs><clipPath id="SVGID_28_"><use xlink:href="#SVGID_79_" overflow="visible"/></clipPath><path class="st28" d="M939 968l133-27-180-282 47 309z"/><defs><path id="SVGID_78_" d="M0 0h1920v1080H0z"/></defs><clipPath id="SVGID_29_"><use xlink:href="#SVGID_78_" overflow="visible"/></clipPath><path class="st29" d="M1072 941l76-194-256-88 180 282z"/><defs><path id="SVGID_77_" d="M0 0h1920v1080H0z"/></defs><clipPath id="SVGID_30_"><use xlink:href="#SVGID_77_" overflow="visible"/></clipPath><path class="st30" d="M957 1192l115-251-133 27 18 224z"/><defs><path id="SVGID_76_" d="M0 0h1920v1080H0z"/></defs><clipPath id="SVGID_31_"><use xlink:href="#SVGID_76_" overflow="visible"/></clipPath><path class="st31" d="M1187 1112l-115-171-115 251 230-80z"/><defs><path id="SVGID_75_" d="M0 0h1920v1080H0z"/></defs><clipPath id="SVGID_32_"><use xlink:href="#SVGID_75_" overflow="visible"/></clipPath><path class="st32" d="M1263 970l-115-223-76 194 191 29z"/><defs><path id="SVGID_74_" d="M0 0h1920v1080H0z"/></defs><clipPath id="SVGID_33_"><use xlink:href="#SVGID_74_" overflow="visible"/></clipPath><path class="st33" d="M1187 1112l76-142-191-29 115 171z"/><defs><path id="SVGID_73_" d="M0 0h1920v1080H0z"/></defs><clipPath id="SVGID_34_"><use xlink:href="#SVGID_73_" overflow="visible"/></clipPath><path class="st34" d="M1263 970l125-297-240 74 115 223z"/><defs><path id="SVGID_72_" d="M0 0h1920v1080H0z"/></defs><clipPath id="SVGID_35_"><use xlink:href="#SVGID_72_" overflow="visible"/></clipPath><path class="st35" d="M1388 673l-116-54-124 128 240-74z"/><defs><path id="SVGID_71_" d="M0 0h1920v1080H0z"/></defs><clipPath id="SVGID_36_"><use xlink:href="#SVGID_71_" overflow="visible"/></clipPath><path class="st36" d="M1417 1182l-154-212-76 142 230 70z"/><defs><path id="SVGID_70_" d="M0 0h1920v1080H0z"/></defs><clipPath id="SVGID_37_"><use xlink:href="#SVGID_70_" overflow="visible"/></clipPath><path class="st37" d="M1388 673l103-44-219-10 116 54z"/><defs><path id="SVGID_69_" d="M0 0h1920v1080H0z"/></defs><clipPath id="SVGID_38_"><use xlink:href="#SVGID_69_" overflow="visible"/></clipPath><path class="st38" d="M1519 754l-131-81-125 297 256-216z"/><defs><path id="SVGID_68_" d="M0 0h1920v1080H0z"/></defs><clipPath id="SVGID_39_"><use xlink:href="#SVGID_68_" overflow="visible"/></clipPath><path class="st39" d="M1541 895l-22-141-256 216 278-75z"/><defs><path id="SVGID_67_" d="M0 0h1920v1080H0z"/></defs><clipPath id="SVGID_40_"><use xlink:href="#SVGID_67_" overflow="visible"/></clipPath><path class="st40" d="M1417 1182l124-287-278 75 154 212z"/><defs><path id="SVGID_66_" d="M0 0h1920v1080H0z"/></defs><clipPath id="SVGID_41_"><use xlink:href="#SVGID_66_" overflow="visible"/></clipPath><path class="st41" d="M1683 1004l-142-109-124 287 266-178z"/><defs><path id="SVGID_65_" d="M0 0h1920v1080H0z"/></defs><clipPath id="SVGID_42_"><use xlink:href="#SVGID_65_" overflow="visible"/></clipPath><path class="st42" d="M1519 754l-28-125-103 44 131 81z"/><defs><path id="SVGID_64_" d="M0 0h1920v1080H0z"/></defs><clipPath id="SVGID_43_"><use xlink:href="#SVGID_64_" overflow="visible"/></clipPath><path class="st43" d="M1605 1240l78-236-266 178 188 58z"/><defs><path id="SVGID_63_" d="M0 0h1920v1080H0z"/></defs><clipPath id="SVGID_44_"><use xlink:href="#SVGID_63_" overflow="visible"/></clipPath><path class="st44" d="M1519 754l158-149-186 24 28 125z"/><defs><path id="SVGID_62_" d="M0 0h1920v1080H0z"/></defs><clipPath id="SVGID_45_"><use xlink:href="#SVGID_62_" overflow="visible"/></clipPath><path class="st45" d="M1541 895l236-219-258 78 22 141z"/><defs><path id="SVGID_61_" d="M0 0h1920v1080H0z"/></defs><clipPath id="SVGID_46_"><use xlink:href="#SVGID_61_" overflow="visible"/></clipPath><path class="st46" d="M1777 676l-100-71-158 149 258-78z"/><defs><path id="SVGID_60_" d="M0 0h1920v1080H0z"/></defs><clipPath id="SVGID_47_"><use xlink:href="#SVGID_60_" overflow="visible"/></clipPath><path class="st47" d="M1683 1004l94-328-236 219 142 109z"/><defs><path id="SVGID_59_" d="M0 0h1920v1080H0z"/></defs><clipPath id="SVGID_48_"><use xlink:href="#SVGID_59_" overflow="visible"/></clipPath><path class="st48" d="M1712 1286l143-147-172-135 29 282z"/><defs><path id="SVGID_58_" d="M0 0h1920v1080H0z"/></defs><clipPath id="SVGID_49_"><use xlink:href="#SVGID_58_" overflow="visible"/></clipPath><path class="st49" d="M1712 1286l-29-282-78 236 107 46z"/><defs><path id="SVGID_57_" d="M0 0h1920v1080H0z"/></defs><clipPath id="SVGID_50_"><use xlink:href="#SVGID_57_" overflow="visible"/></clipPath><path class="st50" d="M1945 773l-168-97-94 328 262-231z"/><defs><path id="SVGID_56_" d="M0 0h1920v1080H0z"/></defs><clipPath id="SVGID_51_"><use xlink:href="#SVGID_56_" overflow="visible"/></clipPath><path class="st51" d="M2042 953l-97-180-262 231 359-51z"/><defs><path id="SVGID_55_" d="M0 0h1920v1080H0z"/></defs><clipPath id="SVGID_52_"><use xlink:href="#SVGID_55_" overflow="visible"/></clipPath><path class="st52" d="M1855 1139l72.5-59L2042 953l-359 51 172 135z"/><defs><path id="SVGID_54_" d="M0 0h1920v1080H0z"/></defs><clipPath id="SVGID_53_"><use xlink:href="#SVGID_54_" overflow="visible"/></clipPath><path class="st53" d="M1945 773l21-216-189 119 168 97z"/></g></svg>